<?xml version="1.0" standalone="no"?>
<!DOCTYPE svg PUBLIC "-//W3C//DTD SVG 20010904//EN"
 "http://www.w3.org/TR/2001/REC-SVG-20010904/DTD/svg10.dtd">
<svg version="1.0" xmlns="http://www.w3.org/2000/svg"
 width="500.000000pt" height="500.000000pt" viewBox="0 0 500.000000 500.000000"
 preserveAspectRatio="xMidYMid meet">

<g transform="translate(0.000000,500.000000) scale(0.100000,-0.100000)"
fill="#000000" stroke="none">
<path d="M0 2500 l0 -2500 2500 0 2500 0 0 2500 0 2500 -2500 0 -2500 0 0
-2500z m1920 2185 c18 -69 37 -125 42 -125 5 0 22 10 39 22 47 35 161 38 231
6 65 -30 115 -79 148 -144 35 -69 35 -189 1 -254 -52 -101 -129 -153 -226
-154 -33 -1 -64 -6 -70 -12 -5 -7 -44 -19 -85 -29 -52 -12 -96 -31 -142 -61
-37 -24 -73 -44 -80 -44 -7 0 -26 -16 -41 -35 -71 -89 -210 -112 -325 -54
-105 52 -164 148 -164 267 0 118 70 227 164 253 24 7 48 19 55 26 13 16 143
103 152 102 3 0 22 -26 42 -57 116 -181 223 -341 227 -337 4 4 -20 102 -129
519 -27 104 -48 190 -46 192 3 3 149 42 163 43 6 1 26 -55 44 -124z m917 -45
c152 -66 224 -259 148 -399 -32 -59 -75 -100 -138 -133 -61 -33 -194 -33 -256
1 -166 88 -213 311 -95 450 87 101 220 133 341 81z m407 -82 c34 -12 65 -25
71 -30 5 -4 23 -8 40 -8 37 0 102 -18 110 -30 5 -9 -29 -127 -47 -163 -8 -16
-11 -16 -38 -2 -45 23 -95 19 -118 -9 -10 -14 -40 -87 -66 -163 -27 -76 -51
-142 -55 -146 -7 -6 -155 37 -170 49 -2 2 5 30 17 61 16 45 87 247 157 451 6
17 29 15 99 -10z m522 -236 c50 -26 109 -85 136 -137 23 -43 36 -179 21 -202
-6 -8 -62 -14 -171 -19 -107 -5 -160 -10 -153 -17 5 -5 34 -10 64 -10 l54 0
26 -80 c20 -62 24 -83 14 -89 -6 -4 -10 -8 -7 -9 3 0 39 -8 80 -17 70 -16 75
-19 80 -47 3 -19 12 -31 24 -33 21 -4 20 12 -8 83 -46 121 14 231 133 243 72
7 132 -18 177 -74 31 -38 37 -53 41 -106 6 -88 2 -91 -85 -69 -39 10 -74 16
-77 13 -2 -2 2 -17 10 -33 17 -31 20 -105 6 -141 -12 -33 -70 -87 -111 -105
-126 -54 -300 77 -300 225 l0 49 -68 6 c-90 7 -166 42 -219 99 -50 55 -67 88
-81 153 -12 61 3 174 27 195 4 3 19 22 34 43 32 42 87 80 138 96 53 16 168 7
215 -17z m-2651 -423 l-7 -81 43 22 c103 53 217 8 263 -102 20 -47 20 -73 0
-130 -30 -90 -139 -178 -221 -178 -33 0 -33 0 -33 49 0 88 11 141 29 141 20 0
41 19 41 37 0 21 -27 15 -73 -18 -35 -24 -55 -31 -98 -32 -107 -2 -179 67
-179 170 0 115 85 202 199 203 l43 0 -7 -81z m1405 -999 l0 -410 -89 0 c-50 0
-92 4 -96 9 -3 6 -17 4 -33 -5 -42 -22 -129 -18 -187 10 -64 29 -129 102 -151
168 -24 74 -15 188 20 250 57 99 151 153 251 145 33 -3 70 -8 83 -12 l22 -7 0
131 0 131 90 0 90 0 0 -410z m433 156 c56 -20 110 -61 145 -110 57 -79 57 -80
-76 -174 -64 -46 -124 -88 -132 -92 -8 -5 -12 -12 -8 -15 10 -10 45 4 76 30
l28 24 65 -50 c35 -27 65 -56 67 -63 4 -18 -63 -75 -117 -99 -69 -30 -173 -34
-241 -8 -66 25 -139 93 -171 159 -28 59 -30 168 -5 226 35 83 110 150 196 177
40 12 132 9 173 -5z m-1536 -941 c40 -19 73 -36 73 -38 0 -3 -23 -53 -51 -112
-27 -59 -48 -114 -45 -121 3 -8 19 -14 35 -14 76 0 177 -78 206 -159 8 -24 15
-72 15 -107 0 -57 -7 -80 -69 -221 -39 -87 -74 -159 -78 -160 -5 -2 -43 14
-85 34 l-77 38 64 140 c36 77 65 154 65 170 0 66 -62 107 -131 86 -47 -14 -52
-22 -124 -181 -31 -69 -58 -127 -60 -129 -3 -2 -19 3 -37 12 -18 8 -54 24 -80
36 -27 12 -48 24 -48 26 0 3 29 68 65 144 36 77 65 141 65 144 0 3 22 51 49
108 46 99 70 152 129 282 14 31 30 57 35 57 6 0 43 -16 84 -35z m1917 -302
c15 -71 51 -238 81 -373 29 -135 55 -256 57 -270 3 -23 -2 -26 -67 -42 -38
-10 -81 -17 -95 -16 -14 1 -37 -6 -51 -15 -14 -9 -47 -21 -75 -26 -147 -28
-293 77 -325 234 -16 79 -6 139 34 206 57 94 151 147 244 136 24 -2 43 -2 43
1 0 3 -12 61 -26 129 -14 68 -24 126 -23 127 4 3 144 33 164 35 6 0 23 -56 39
-126z m514 7 c106 -47 172 -151 172 -271 0 -161 -151 -301 -309 -286 -164 14
-277 139 -274 303 2 127 85 230 223 275 38 13 136 2 188 -21z m-1860 -170 c24
-6 55 -18 69 -28 15 -9 37 -15 51 -13 42 5 162 -29 162 -47 0 -8 -19 -101 -41
-206 -23 -105 -47 -219 -54 -254 -6 -34 -15 -65 -18 -69 -8 -7 -168 24 -176
35 -3 4 -35 7 -71 8 -80 0 -131 25 -186 87 -144 163 -65 427 144 483 58 16 67
16 120 4z m663 -80 c52 -15 74 -30 115 -72 45 -46 84 -112 73 -122 -2 -2 -62
-45 -132 -96 -71 -50 -126 -94 -124 -96 8 -8 56 15 77 36 l21 21 70 -51 c38
-29 69 -58 69 -65 0 -19 -67 -75 -119 -99 -65 -29 -198 -29 -261 0 -56 27
-123 93 -151 153 -30 61 -30 166 -1 231 33 76 96 134 174 161 68 24 111 23
189 -1z m692 -717 c-4 -11 -2 -14 5 -9 7 4 26 -14 48 -43 41 -54 64 -55 64 -2
0 18 11 37 32 57 32 28 32 28 9 2 -27 -31 -19 -37 13 -10 21 17 21 17 2 -6
-24 -28 -16 -39 9 -12 10 11 23 20 28 20 6 0 -2 -10 -17 -23 -14 -13 -23 -26
-20 -30 4 -4 19 3 33 15 21 19 20 17 -3 -10 -17 -17 -37 -32 -45 -31 -14 0
-14 1 -1 7 12 6 11 11 -8 32 l-24 25 3 -27 c2 -15 -3 -34 -13 -45 -17 -18 -16
-21 14 -59 28 -34 29 -36 5 -15 -33 30 -35 20 -5 -22 12 -18 16 -27 8 -20 -20
15 -56 78 -40 68 8 -5 11 -3 8 6 -3 9 -16 13 -36 11 -23 -3 -33 2 -42 18 -6
12 -9 24 -7 27 3 2 8 -5 12 -16 6 -21 29 -28 39 -13 5 9 -50 92 -61 92 -3 0
-3 -12 1 -27 5 -28 5 -28 -9 2 -16 35 -19 69 -5 60 5 -3 6 -13 3 -22z m-1115
-129 l-1 -65 -35 3 c-44 4 -60 26 -46 65 7 20 17 29 37 31 19 2 27 9 27 23 0
11 4 18 9 15 5 -4 9 -36 9 -72z m592 66 c0 -5 -4 -10 -10 -10 -5 0 -10 5 -10
10 0 6 5 10 10 10 6 0 10 -4 10 -10z m110 -60 c0 -70 0 -70 -28 -70 -35 0 -52
16 -52 50 0 30 16 50 41 50 9 0 19 9 22 20 10 39 17 19 17 -50z m-1175 51 c3
-5 -9 -11 -27 -13 -36 -3 -45 -21 -33 -65 5 -21 10 -24 36 -21 18 3 28 1 26
-6 -6 -19 -48 -19 -68 0 -23 21 -25 76 -3 98 17 18 59 21 69 7z m99 -30 c3 -4
8 -26 10 -49 l6 -40 -38 2 c-30 1 -38 5 -40 23 -3 17 3 24 22 29 31 7 34 24 5
24 -11 0 -17 5 -14 10 8 12 42 13 49 1z m96 -1 c0 -5 -7 -10 -15 -10 -22 0
-18 -17 5 -23 24 -6 27 -45 4 -54 -8 -3 -25 0 -37 6 l-22 12 22 -5 c32 -6 39
11 12 33 -14 11 -20 24 -16 34 7 18 47 24 47 7z m108 -43 l3 -48 -33 3 c-28 2
-33 7 -33 28 0 18 6 26 23 28 30 5 28 22 -4 22 -15 0 -23 4 -19 11 4 5 19 9
33 7 25 -3 27 -7 30 -51z m270 41 c21 -21 13 -38 -18 -38 -20 0 -30 -5 -30
-15 0 -13 18 -20 43 -16 4 0 7 -3 7 -9 0 -14 -43 -13 -58 2 -27 27 -8 88 28
88 9 0 21 -5 28 -12z m152 3 c0 -5 -10 -11 -22 -13 -17 -2 -23 -10 -23 -28 0
-18 6 -26 23 -28 29 -4 29 -22 -1 -22 -42 0 -60 38 -37 81 11 19 60 27 60 10z
m111 -18 c13 -35 -6 -73 -36 -73 -28 0 -45 18 -45 50 0 54 62 72 81 23z m167
-25 c2 -29 -1 -48 -7 -48 -6 0 -11 18 -11 41 0 33 -3 40 -17 37 -13 -2 -19
-14 -21 -41 -4 -46 -22 -39 -22 9 0 24 -5 34 -15 34 -10 0 -15 -10 -15 -34 0
-19 -4 -38 -10 -41 -6 -4 -10 13 -10 43 l0 49 63 -1 62 -1 3 -47z m59 2 c-3
-65 -17 -65 -17 0 0 28 4 50 10 50 5 0 9 -22 7 -50z m221 -2 l3 -48 -35 0
c-32 0 -36 3 -36 25 0 18 7 26 25 31 30 7 33 24 5 24 -11 0 -20 5 -20 11 0 6
12 9 28 7 25 -3 27 -7 30 -50z m92 42 c0 -5 -10 -10 -22 -10 -22 0 -21 -1 7
-24 25 -20 28 -26 16 -40 -15 -18 -47 -21 -57 -5 -4 7 2 9 16 7 32 -4 36 16 5
30 -24 11 -32 31 -18 45 10 11 53 8 53 -3z m222 -63 c-12 -13 -22 -26 -22 -30
0 -16 23 -5 47 23 13 17 29 30 34 30 5 0 -6 -16 -25 -35 -37 -37 -50 -42 -61
-24 -6 9 31 59 43 59 3 0 -4 -10 -16 -23z"/>
<path d="M1803 4757 c-23 -7 -44 -14 -46 -17 -6 -5 -1 -26 98 -405 38 -143 70
-272 73 -287 5 -32 4 -32 71 -17 49 10 50 11 44 42 l-6 32 25 -17 c38 -25 88
-31 139 -15 109 33 169 120 169 241 -1 114 -51 199 -145 242 -91 43 -199 24
-257 -44 -14 -17 -28 -29 -30 -27 -2 3 -20 68 -39 145 -19 77 -38 139 -44 139
-5 -1 -29 -6 -52 -12z m385 -317 c35 -21 71 -87 72 -129 0 -43 -46 -107 -90
-125 -54 -22 -81 -20 -121 7 -66 44 -89 139 -49 205 37 60 126 80 188 42z"/>
<path d="M2074 4421 c-32 -14 -64 -60 -64 -93 0 -101 113 -157 181 -89 61 61
24 175 -61 186 -19 3 -45 1 -56 -4z"/>
<path d="M1558 4374 c-40 -25 -46 -42 -26 -62 9 -9 1 -12 -39 -12 -88 0 -143
-34 -186 -115 -28 -53 -30 -173 -4 -226 49 -99 141 -159 243 -159 88 0 175 60
195 134 l11 40 18 -23 17 -24 47 32 c43 30 45 34 34 55 -35 64 -254 386 -263
385 -5 0 -27 -11 -47 -25z m52 -192 c94 -70 91 -201 -4 -246 -100 -47 -206 23
-206 136 0 106 125 172 210 110z"/>
<path d="M1479 4156 c-14 -9 -32 -29 -39 -45 -40 -97 71 -196 158 -141 58 36
66 105 19 163 -28 35 -96 46 -138 23z"/>
<path d="M2632 4617 c-45 -14 -118 -80 -145 -131 -33 -63 -31 -176 6 -238 92
-157 284 -182 411 -55 58 58 76 104 76 188 0 168 -180 290 -348 236z m158
-117 c67 -35 92 -145 48 -210 -13 -19 -35 -40 -48 -47 -38 -19 -110 -16 -148
7 -97 59 -74 227 34 260 30 8 87 3 114 -10z"/>
<path d="M2661 4464 c-53 -37 -61 -132 -15 -175 13 -12 41 -23 67 -26 38 -5
48 -1 76 23 59 52 50 153 -16 183 -35 16 -85 13 -112 -5z"/>
<path d="M3162 4513 c-7 -15 -28 -77 -48 -138 -20 -60 -49 -145 -65 -188 -39
-106 -38 -112 18 -131 26 -9 50 -13 54 -9 3 5 19 46 34 93 69 210 112 256 215
228 24 -7 27 -3 44 44 11 33 14 54 8 60 -11 11 -107 6 -136 -7 -17 -7 -18 -5
-12 19 7 28 -3 36 -70 50 -28 6 -32 4 -42 -21z"/>
<path d="M3552 4302 c-68 -25 -136 -90 -157 -151 -55 -162 47 -327 223 -360
56 -11 102 -4 102 15 0 7 -7 31 -16 53 -14 35 -19 39 -60 44 -30 3 -58 15 -82
34 -56 46 -53 53 25 54 37 1 122 4 188 8 l120 6 3 48 c2 37 -4 63 -26 111 -59
125 -193 183 -320 138z m185 -146 c18 -19 33 -42 33 -49 0 -18 -63 -27 -182
-27 -88 0 -89 0 -82 23 20 65 75 100 148 94 42 -4 55 -10 83 -41z"/>
<path d="M3583 4150 c-50 -30 -42 -44 20 -36 28 3 67 6 85 6 40 0 41 15 2 35
-39 20 -68 19 -107 -5z"/>
<path d="M4030 3953 c-28 -10 -70 -56 -81 -90 -12 -38 -5 -81 22 -135 24 -47
24 -70 -1 -93 -28 -26 -67 -13 -87 30 -14 30 -24 36 -70 46 -29 7 -56 9 -60 5
-12 -11 17 -99 43 -134 80 -105 216 -115 287 -21 34 46 33 105 -2 173 -39 72
-40 103 -6 112 29 7 53 -9 66 -42 6 -17 19 -24 54 -30 25 -3 48 -4 51 -1 3 3
3 24 -1 47 -16 94 -130 164 -215 133z"/>
<path d="M4080 3813 c1 -5 7 -19 15 -33 10 -18 14 -20 15 -8 0 23 -11 48 -21
48 -5 0 -9 -3 -9 -7z"/>
<path d="M1005 3930 c-104 -52 -125 -207 -36 -267 52 -35 114 -31 181 12 63
40 80 42 105 15 24 -26 13 -67 -24 -88 -25 -14 -29 -24 -34 -71 -3 -31 -4 -57
-2 -59 12 -12 77 13 114 44 89 76 108 188 45 260 -27 30 -78 54 -114 54 -34 0
-101 -31 -134 -61 -13 -13 -32 -19 -51 -17 -24 2 -31 8 -33 30 -2 20 4 32 27
49 27 20 31 29 31 71 0 56 -11 60 -75 28z"/>
<path d="M1063 3803 c-7 -2 -13 -9 -13 -14 0 -14 26 -10 40 6 10 12 10 15 -1
14 -8 0 -20 -3 -26 -6z"/>
<path d="M2370 3124 l0 -158 -27 27 c-16 14 -49 31 -75 36 -100 23 -196 -25
-256 -127 -23 -41 -27 -58 -27 -127 0 -96 21 -142 90 -203 80 -70 194 -79 261
-20 l34 30 0 -31 0 -31 60 0 60 0 -2 378 -3 377 -57 3 -58 3 0 -157z m-72
-218 c41 -21 63 -50 73 -96 21 -94 -40 -180 -128 -180 -84 0 -143 60 -143 147
0 100 112 173 198 129z"/>
<path d="M2197 2875 c-58 -30 -74 -70 -57 -136 24 -88 145 -106 186 -28 31 61
12 138 -41 164 -41 19 -53 19 -88 0z"/>
<path d="M2802 3030 c-236 -48 -276 -377 -58 -487 96 -49 245 -32 309 35 l25
27 -44 33 -43 34 -34 -21 c-37 -22 -119 -29 -147 -11 -13 8 -12 11 5 24 11 8
78 56 149 108 71 51 131 98 133 104 2 6 -11 31 -29 55 -57 76 -171 118 -266
99z m118 -125 c17 -9 30 -19 30 -24 0 -14 -210 -162 -220 -156 -18 11 -11 96
10 130 36 59 119 82 180 50z"/>
<path d="M2810 2872 c-35 -17 -64 -60 -58 -87 2 -10 23 0 71 36 64 47 77 69
39 69 -9 0 -33 -8 -52 -18z"/>
<path d="M1326 2078 c-21 -49 -65 -148 -86 -193 -10 -22 -42 -92 -70 -155 -29
-63 -70 -153 -91 -199 -22 -46 -39 -89 -39 -96 0 -7 22 -21 49 -33 l49 -20 37
82 c49 109 75 157 94 180 42 48 123 60 178 26 71 -43 74 -107 14 -235 -50
-105 -75 -165 -70 -168 15 -10 82 -37 90 -37 15 0 118 223 131 283 30 141 -47
262 -180 283 -23 3 -55 1 -73 -5 -18 -6 -33 -10 -34 -9 -1 2 24 62 56 133 32
72 58 135 59 142 0 9 -79 53 -96 53 -2 0 -10 -15 -18 -32z"/>
<path d="M3208 1888 c-21 -6 -38 -13 -38 -17 0 -3 13 -69 30 -145 16 -77 28
-141 26 -144 -3 -2 -15 3 -28 12 -30 21 -129 21 -174 0 -45 -22 -92 -70 -115
-119 -29 -62 -26 -167 7 -233 30 -60 92 -118 143 -132 93 -26 196 1 229 61 21
36 32 37 32 4 0 -29 1 -29 70 -14 40 8 50 14 46 27 -2 10 -11 49 -20 87 -8 39
-31 142 -50 230 -20 88 -45 205 -56 260 -32 153 -24 144 -102 123z m10 -405
c39 -24 62 -73 62 -132 0 -49 -3 -57 -39 -92 -35 -36 -43 -39 -93 -39 -44 0
-59 5 -89 29 -45 37 -64 95 -49 150 12 45 52 89 89 97 14 3 31 7 36 9 16 5 58
-6 83 -22z"/>
<path d="M3095 1458 c-37 -20 -55 -52 -55 -96 0 -37 6 -50 34 -78 26 -26 42
-34 71 -34 55 0 105 52 105 110 0 79 -88 135 -155 98z"/>
<path d="M3630 1797 c-19 -6 -56 -32 -81 -57 -142 -142 -84 -375 108 -435 49
-15 66 -16 111 -7 108 23 186 94 213 197 30 108 -31 237 -136 293 -37 19 -167
25 -215 9z m179 -124 c56 -42 78 -136 44 -193 -22 -38 -82 -70 -132 -70 -33 0
-49 7 -80 36 -79 70 -70 181 18 233 43 26 109 23 150 -6z"/>
<path d="M3655 1637 c-34 -29 -44 -91 -21 -135 17 -34 61 -62 96 -62 35 0 79
28 96 62 21 41 12 93 -22 130 -36 37 -109 40 -149 5z"/>
<path d="M1844 1606 c-77 -34 -144 -124 -159 -214 -17 -101 43 -218 135 -266
62 -33 147 -27 194 13 18 15 19 15 13 -16 -6 -30 -4 -33 31 -43 77 -21 75 -24
104 123 15 72 37 180 50 239 12 59 20 109 18 112 -3 2 -29 8 -58 12 -49 6 -52
5 -52 -15 0 -28 -14 -27 -34 4 -38 58 -165 84 -242 51z m180 -127 c77 -60 71
-190 -10 -244 -60 -39 -151 -16 -189 50 -40 68 -27 136 34 188 42 35 124 38
165 6z"/>
<path d="M1890 1453 c-40 -28 -49 -45 -50 -96 0 -41 5 -53 29 -78 75 -75 200
4 176 111 -14 66 -100 101 -155 63z"/>
<path d="M2455 1536 c-148 -65 -201 -262 -105 -394 58 -81 180 -124 280 -100
57 14 110 40 133 66 18 20 18 21 -12 38 -17 10 -31 21 -31 25 0 17 -34 17 -68
-1 -39 -21 -116 -27 -142 -10 -18 11 -27 4 147 129 l143 102 -17 32 c-21 41
-68 84 -118 108 -48 22 -164 25 -210 5z m159 -111 c20 -8 36 -19 36 -24 0 -11
-205 -161 -220 -161 -17 0 -11 100 7 131 18 31 84 69 119 69 12 0 38 -7 58
-15z"/>
<path d="M2488 1377 c-16 -12 -31 -37 -34 -55 l-7 -32 71 47 c39 27 71 51 72
56 1 17 -76 6 -102 -16z"/>
<path d="M2167 733 c-4 -3 -7 -17 -7 -30 0 -18 5 -23 25 -23 21 0 25 5 25 30
0 22 -5 30 -18 30 -10 0 -22 -3 -25 -7z"/>
<path d="M2877 733 c-4 -3 -7 -17 -7 -30 0 -16 6 -23 20 -23 16 0 20 7 20 30
0 28 -17 40 -33 23z"/>
<path d="M1823 703 c-20 -8 -15 -23 7 -23 11 0 20 7 20 15 0 15 -6 17 -27 8z"/>
<path d="M2017 703 c-12 -11 -8 -23 8 -23 8 0 15 7 15 15 0 16 -12 20 -23 8z"/>
<path d="M2280 730 c0 -5 9 -10 20 -10 11 0 20 5 20 10 0 6 -9 10 -20 10 -11
0 -20 -4 -20 -10z"/>
<path d="M2543 743 c-17 -6 -16 -60 1 -66 17 -7 36 11 36 34 0 20 -21 38 -37
32z"/>
<path d="M3003 703 c-18 -7 -16 -23 2 -23 8 0 15 7 15 15 0 8 -1 15 -2 14 -2
0 -9 -3 -15 -6z"/>
</g>
</svg>
