<?xml version="1.0" standalone="no"?>
<!DOCTYPE svg PUBLIC "-//W3C//DTD SVG 20010904//EN"
 "http://www.w3.org/TR/2001/REC-SVG-20010904/DTD/svg10.dtd">
<svg version="1.0" xmlns="http://www.w3.org/2000/svg"
 width="1500.000000pt" height="1000.000000pt" viewBox="0 0 1500.000000 1000.000000"
 preserveAspectRatio="xMidYMid meet">

<g transform="translate(0.000000,1000.000000) scale(0.100000,-0.100000)"
fill="#000000" stroke="none">
<path d="M0 5000 l0 -5000 7500 0 7500 0 0 5000 0 5000 -7500 0 -7500 0 0
-5000z m3051 -2451 c4 -8 13 -8 25 -1 24 12 84 13 84 2 0 -5 8 -7 18 -3 11 4
14 3 7 -4 -5 -6 -37 -16 -71 -23 -45 -9 -70 -21 -96 -46 -20 -18 -37 -31 -40
-29 -11 12 -65 13 -83 1 -11 -7 -47 -14 -81 -15 -56 -2 -61 0 -72 24 -17 37
-15 72 4 83 21 12 55 3 70 -17 10 -13 14 -13 30 -1 11 8 26 23 34 33 13 16 25
18 89 13 41 -3 78 -11 82 -17z m254 0 c-4 -5 -13 -9 -22 -9 -13 0 -13 3 -3 15
13 15 35 11 25 -6z m4870 -60 c6 -3 35 -7 65 -8 83 -3 111 -8 154 -24 43 -16
76 -12 76 9 0 10 22 13 103 10 93 -3 157 -18 157 -36 0 -11 54 -2 58 9 2 6 8
11 13 11 6 0 7 -5 3 -11 -7 -11 26 -5 55 11 8 4 24 5 35 0 26 -9 141 -5 181 7
31 10 95 8 196 -3 36 -4 64 -2 79 6 16 9 24 9 29 1 4 -6 23 -11 42 -10 19 0
95 -3 169 -7 147 -9 210 -9 283 1 38 6 52 4 67 -10 15 -13 29 -16 62 -11 31 5
49 2 63 -8 11 -8 17 -17 14 -20 -5 -6 -452 -18 -594 -16 -44 0 -102 -3 -128
-8 -33 -7 -58 -6 -77 1 -21 8 -53 7 -122 -3 -89 -13 -272 -15 -291 -3 -13 8
-109 7 -135 -1 -37 -12 -670 -5 -690 8 -5 3 -30 -2 -57 -10 -27 -8 -56 -12
-64 -9 -35 10 -227 8 -248 -3 -14 -8 -24 -8 -28 -2 -4 6 -15 6 -33 -1 -20 -8
-29 -7 -37 3 -11 14 -29 17 -40 6 -4 -4 -14 -4 -23 -1 -8 4 -13 2 -9 -3 3 -5
-7 -15 -23 -22 -22 -10 -38 -11 -69 -2 -23 6 -41 14 -41 19 0 4 -11 13 -25 19
-14 6 -25 17 -25 24 0 10 2 10 8 1 4 -7 18 -11 30 -8 15 3 22 -1 22 -13 0 -12
3 -13 11 -5 6 6 17 9 24 7 7 -3 16 -1 20 5 3 6 -2 11 -12 11 -16 0 -16 1 0 17
14 15 22 15 47 6 17 -6 30 -8 30 -5 0 9 20 11 155 15 61 2 118 7 127 11 9 4
43 2 75 -5 32 -7 76 -11 98 -9 22 2 57 4 77 4 20 0 35 4 32 8 -3 4 3 8 12 8
10 0 14 3 10 7 -4 4 -15 8 -24 8 -9 0 -18 7 -20 15 -2 13 9 16 60 15 35 0 68
-3 73 -6z m2141 -62 c4 -3 1 -13 -6 -21 -18 -22 -210 -10 -210 14 0 5 12 10
28 13 43 6 180 2 188 -6z m194 -2 c0 -10 -10 -15 -32 -15 -30 0 -31 1 -12 15
25 19 44 19 44 0z m-5108 -16 c29 -16 21 -36 -27 -65 -45 -26 -47 -26 -143
-16 -53 5 -106 6 -118 2 -11 -5 -27 -4 -35 1 -8 5 -50 9 -94 9 -44 0 -96 4
-115 10 -19 5 -36 6 -39 1 -4 -5 -62 -9 -131 -9 -69 0 -174 0 -235 0 -78 -1
-118 3 -139 14 -32 16 -91 10 -116 -11 -16 -14 -102 -29 -160 -28 -26 0 -41
-6 -58 -27 l-24 -29 -46 20 c-25 11 -51 18 -58 15 -6 -2 -20 2 -31 9 -10 7
-30 13 -43 14 -14 0 -47 2 -75 4 -55 5 -115 -15 -115 -38 0 -18 -30 -35 -59
-32 -19 1 -21 6 -18 34 3 21 0 34 -9 37 -8 3 -14 -1 -14 -9 0 -19 -5 -19 -34
0 -19 13 -28 13 -49 4 -19 -9 -30 -9 -40 -1 -13 11 -112 15 -215 10 -40 -2
-57 -8 -68 -23 -8 -11 -23 -21 -32 -21 -9 -1 -23 -3 -30 -5 -8 -2 -18 7 -23
20 -7 18 -6 22 5 18 21 -8 13 22 -11 42 -15 12 -19 21 -13 36 5 11 9 16 9 10
1 -6 72 -9 198 -7 109 1 230 2 268 1 39 -1 174 -2 300 -3 200 -2 237 -4 282
-21 49 -18 53 -18 88 -2 51 24 257 35 470 24 61 -3 137 -9 170 -13 33 -4 65
-6 70 -4 10 3 76 14 170 28 77 12 366 12 387 1z m1908 -29 c0 -22 -5 -30 -17
-30 -15 0 -16 2 -3 10 13 9 13 10 0 10 -9 0 -22 -6 -29 -12 -10 -11 -12 -9 -9
7 2 11 10 19 16 17 7 -1 15 5 18 13 10 25 24 17 24 -15z m-5791 -6 c96 -7 84
-25 -19 -29 -39 -2 -74 -6 -77 -9 -9 -8 -33 14 -33 30 0 14 36 24 60 17 8 -3
39 -7 69 -9z m1258 -16 c-6 -4 -16 -3 -22 3 -6 6 -5 13 5 19 9 6 17 5 22 -3 4
-6 2 -15 -5 -19z m3668 22 c3 -5 -3 -10 -14 -10 -12 0 -21 5 -21 10 0 6 6 10
14 10 8 0 18 -4 21 -10z m556 -17 c-8 -15 -10 -15 -11 -2 0 17 10 32 18 25 2
-3 -1 -13 -7 -23z m-5001 4 c0 -5 5 -5 10 -2 6 3 10 1 10 -5 0 -7 -15 -9 -42
-6 -24 3 -47 5 -53 6 -5 0 -4 4 3 9 17 10 72 9 72 -2z m4535 3 c-3 -5 -10 -10
-16 -10 -5 0 -9 5 -9 10 0 6 7 10 16 10 8 0 12 -4 9 -10z m-2311 -96 c-1 -25
-6 -50 -13 -57 -19 -19 -25 1 -11 42 7 21 9 44 6 50 -4 6 -1 11 6 11 9 0 13
-14 12 -46z m293 20 c7 -19 -13 -34 -44 -34 -30 0 -40 20 -18 37 25 18 54 17
62 -3z m-1227 -13 c0 -5 -6 -11 -12 -14 -10 -3 -8 -10 5 -23 14 -15 22 -16 45
-8 22 8 30 6 44 -8 10 -9 13 -20 9 -23 -13 -8 -181 -1 -181 8 0 11 38 47 50
47 6 0 10 7 10 15 0 8 7 15 15 15 8 0 15 -4 15 -9z m-210 -42 c0 -5 -7 -9 -15
-9 -8 0 -15 7 -15 15 0 9 6 12 15 9 8 -4 15 -10 15 -15z m2196 10 c10 -17 -13
-36 -27 -22 -12 12 -4 33 11 33 5 0 12 -5 16 -11z m-1386 -40 c0 -17 -7 -19
-60 -19 -59 0 -72 8 -47 28 12 10 85 20 100 14 4 -2 7 -12 7 -23z m-231 12
c11 -7 10 -11 -5 -19 -25 -13 -65 5 -43 19 18 11 30 11 48 0z m481 -21 c-8 -5
-19 -10 -25 -10 -5 0 -3 5 5 10 8 5 20 10 25 10 6 0 3 -5 -5 -10z m-635 -30
c0 -9 -11 -16 -27 -18 -27 -3 -38 14 -21 32 12 12 48 2 48 -14z m692 -5 c5
-16 -14 -38 -26 -31 -18 12 -13 48 6 44 9 -2 18 -7 20 -13z m1063 -9 c0 -17
-14 -29 -23 -20 -8 8 3 34 14 34 5 0 9 -6 9 -14z m-15 -86 c3 -6 -1 -13 -10
-16 -19 -8 -30 0 -20 15 8 14 22 14 30 1z m395 -10 c0 -5 -4 -10 -9 -10 -6 0
-13 5 -16 10 -3 6 1 10 9 10 9 0 16 -4 16 -10z m2021 -63 c-1 -12 -15 -9 -19
4 -3 6 1 10 8 8 6 -3 11 -8 11 -12z m124 -7 c3 -4 -6 -18 -19 -31 -21 -21 -22
-24 -8 -38 9 -9 23 -16 31 -16 9 0 17 -8 19 -18 2 -10 -3 -17 -11 -17 -9 0
-18 -6 -21 -12 -5 -10 -7 -10 -12 0 -3 6 -14 12 -24 12 -28 0 -33 17 -15 52
10 21 12 34 5 36 -10 4 -14 35 -5 44 7 7 54 -2 60 -12z m-2675 -10 c0 -5 -4
-10 -10 -10 -5 0 -10 5 -10 10 0 6 5 10 10 10 6 0 10 -4 10 -10z m2487 -6 c-3
-3 -12 -4 -19 -1 -8 3 -5 6 6 6 11 1 17 -2 13 -5z m313 -20 c17 -9 20 -13 9
-14 -9 0 -22 -7 -29 -15 -10 -12 -15 -11 -37 11 -18 18 -29 22 -36 15 -15 -15
-27 -14 -27 3 0 19 85 19 120 0z m-2040 -24 c0 -5 -4 -10 -10 -10 -5 0 -10 5
-10 10 0 6 5 10 10 10 6 0 10 -4 10 -10z m2038 -40 c3 -9 -1 -11 -12 -7 -10 4
-25 7 -34 8 -14 0 -13 2 3 9 25 11 37 8 43 -10z m79 4 c2 -6 -9 -11 -27 -12
-29 -1 -37 7 -23 22 10 10 46 3 50 -10z m73 5 c0 -6 8 -8 18 -5 9 3 28 -1 42
-9 24 -13 23 -14 -20 -11 -74 5 -78 5 -83 19 -3 8 4 14 19 15 13 1 24 -3 24
-9z m-411 -15 c8 -7 -12 -24 -29 -24 -18 0 -34 23 -23 34 6 6 42 -1 52 -10z
m934 2 c4 -11 -4 -14 -36 -14 -23 1 -53 -3 -67 -7 -22 -7 -23 -6 -11 8 7 9 17
15 20 12 4 -2 21 0 37 5 42 12 51 12 57 -4z m897 -25 c0 -16 -7 -36 -15 -44
-18 -18 -10 -27 27 -27 27 0 28 1 22 39 -6 38 -6 39 22 33 37 -6 45 -19 33
-50 l-9 -25 52 7 c29 4 68 7 86 7 47 -1 54 6 37 39 -8 16 -15 31 -15 34 0 10
249 1 261 -11 13 -13 4 -33 -14 -33 -7 0 -6 4 3 11 13 9 13 10 0 6 -8 -2 -15
-10 -15 -17 0 -20 23 -27 122 -38 123 -14 147 -26 151 -75 3 -36 2 -38 -17
-27 -12 6 -21 20 -21 31 0 14 -5 19 -17 17 -12 -2 -17 -11 -15 -26 2 -12 -2
-22 -7 -22 -6 0 -11 10 -11 23 0 13 -3 27 -6 30 -12 12 -44 -13 -44 -34 0 -16
-4 -19 -22 -13 -13 3 -31 13 -40 22 -16 14 -20 14 -35 -1 -28 -25 -72 -32 -79
-13 -7 18 -34 22 -34 5 0 -7 -11 -9 -30 -5 -20 4 -30 1 -30 -7 0 -6 -8 -3 -16
8 -14 18 -16 18 -27 4 -7 -9 -29 -19 -49 -23 -31 -6 -37 -4 -43 14 -8 26 -31
26 -38 0 -4 -14 -14 -20 -35 -20 -17 0 -34 5 -37 10 -5 8 -11 7 -20 0 -15 -13
-164 -8 -186 6 -16 10 -131 5 -145 -6 -14 -12 -81 -1 -95 16 -9 11 -13 11 -26
-1 -17 -17 -43 -20 -43 -5 0 7 -6 7 -19 0 -25 -13 -98 -13 -106 -1 -3 6 -18 4
-37 -4 -22 -9 -40 -10 -56 -4 -13 5 -27 7 -32 4 -5 -3 -13 7 -18 22 -7 18 -11
22 -11 10 -1 -23 -48 -42 -67 -26 -8 6 -14 8 -14 3 0 -10 -80 -12 -95 -3 -5 4
-23 6 -40 5 -16 -1 -41 4 -54 12 -19 12 -25 12 -32 1 -9 -15 -78 -14 -93 1 -6
6 -15 5 -23 -2 -12 -10 -312 -15 -501 -7 -29 1 -55 -1 -58 -4 -4 -3 -18 -1
-33 4 -21 9 -134 15 -151 9 -20 -7 -212 -6 -216 2 -3 5 -11 4 -19 -2 -8 -6
-33 -9 -61 -5 -27 3 -98 6 -159 7 -65 1 -113 6 -117 12 -4 6 -8 1 -8 -11 0
-13 -4 -23 -10 -23 -5 0 -10 4 -10 9 0 5 -17 9 -37 9 -21 0 -50 0 -65 1 -16 0
-36 0 -45 -1 -10 -1 -33 1 -50 5 -18 3 -35 1 -39 -4 -9 -16 -62 -10 -73 9 -6
9 -11 12 -11 6 0 -14 -91 -25 -106 -13 -7 6 -22 4 -40 -6 -30 -16 -56 -19 -67
-9 -11 11 -1098 1 -1117 -11 -6 -4 -32 -7 -57 -7 -31 1 -54 -5 -73 -20 -23
-16 -32 -19 -43 -10 -8 7 -17 9 -20 6 -3 -4 -21 -1 -38 5 -22 8 -36 8 -43 1
-16 -16 -26 -12 -26 10 0 28 -28 25 -57 -6 -27 -29 -47 -28 -51 4 -4 25 -22
30 -22 7 0 -16 -43 -31 -60 -20 -6 4 -10 16 -8 28 4 31 -25 28 -32 -3 -5 -22
-11 -25 -46 -24 -38 0 -39 1 -36 34 l3 34 -29 -27 c-15 -15 -33 -27 -40 -27
-6 0 -16 -8 -21 -17 -9 -15 -10 -12 -11 15 0 32 -1 33 -22 18 -22 -15 -61 -13
-84 6 -7 5 -16 2 -25 -8 -11 -13 -15 -14 -23 -2 -17 22 -43 28 -76 17 -23 -8
-34 -8 -45 1 -8 7 -15 9 -15 5 0 -4 -6 -2 -14 4 -11 9 -19 9 -35 0 -15 -10
-26 -10 -43 -2 -13 6 -36 10 -53 9 -16 -1 -40 2 -53 6 -16 5 -30 3 -45 -7 -19
-13 -24 -13 -44 0 -16 11 -29 13 -41 7 -9 -5 -61 -8 -114 -6 -55 3 -99 0 -102
-5 -4 -6 -18 -6 -39 0 -52 15 -153 11 -167 -6 -17 -20 -38 -19 -36 2 1 14 -9
18 -47 21 -38 3 -47 0 -47 -12 0 -9 -5 -16 -11 -16 -5 0 -8 4 -4 9 6 11 -16
18 -67 20 -20 1 -39 -3 -43 -9 -5 -7 -37 -8 -103 -3 -54 4 -118 8 -145 7 -33
-1 -47 3 -47 12 0 9 13 14 38 13 20 0 87 3 147 6 61 3 122 1 137 -4 18 -6 28
-6 30 1 4 11 19 11 918 24 256 4 490 8 520 8 30 1 61 5 69 10 8 5 16 4 20 -1
11 -17 99 -12 106 6 6 14 8 14 20 -3 12 -16 24 -17 109 -13 62 4 98 2 102 -5
4 -6 26 -8 58 -4 50 6 106 9 116 7 18 -5 241 -6 265 -1 17 3 44 3 60 0 17 -3
42 -2 58 3 17 6 32 5 40 -1 10 -7 191 -14 432 -14 377 -2 565 -2 630 -3 44 0
86 -4 93 -8 7 -5 12 -4 12 2 0 7 76 10 223 10 269 0 675 9 737 17 25 3 48 11
52 17 5 8 17 8 45 -2 59 -22 105 -24 138 -7 26 14 31 14 47 -1 15 -13 39 -16
126 -16 146 1 277 13 260 24 -7 5 -23 9 -36 9 -13 0 -32 5 -43 10 -17 10 -18
13 -5 25 18 18 218 24 238 7 8 -6 44 -9 93 -6 128 7 137 7 190 5 67 -2 41 -16
-48 -26 -138 -14 -43 -33 202 -39 73 -2 141 -1 150 1 11 3 18 17 19 40 3 43 8
53 28 53 9 0 14 -10 14 -29z m217 3 c-3 -3 -12 -4 -19 -1 -8 3 -5 6 6 6 11 1
17 -2 13 -5z m366 -10 c14 -5 13 -8 -1 -25 -15 -17 -17 -17 -34 -2 -10 9 -18
20 -18 25 0 9 31 11 53 2z m-373 -14 c0 -5 -5 -10 -11 -10 -5 0 -7 5 -4 10 3
6 8 10 11 10 2 0 4 -4 4 -10z m445 1 c10 -18 -17 -23 -33 -7 -15 15 -15 16 5
16 12 0 24 -4 28 -9z m305 -81 c11 -6 20 -17 20 -25 0 -11 -6 -12 -25 -5 -22
8 -25 7 -25 -11 0 -12 -5 -19 -12 -17 -19 7 -51 55 -44 66 7 12 57 8 86 -8z
m-102 -11 c2 -9 -5 -19 -15 -23 -10 -3 -23 -9 -30 -12 -14 -6 -37 32 -28 47
11 16 69 6 73 -12z m332 -30 c0 -22 -5 -29 -19 -29 -22 0 -26 4 -35 42 -5 20
-2 27 11 30 26 6 43 -11 43 -43z m93 39 c16 -8 27 -21 26 -33 0 -20 0 -20 -8
0 -8 19 -8 19 -22 -3 -18 -28 -23 -28 -38 4 -19 42 -4 53 42 32z m127 -20 c0
-11 8 -22 20 -25 26 -7 26 -33 0 -33 -22 0 -55 54 -46 77 8 19 26 7 26 -19z
m101 12 c28 0 30 -16 4 -30 -20 -11 -26 -10 -40 4 -10 9 -14 24 -11 33 5 12 9
14 18 5 7 -7 20 -12 29 -12z m-7971 0 c0 -5 -15 -10 -32 -9 -28 0 -30 2 -13 9
28 12 45 12 45 0z m9047 -22 c-3 -8 -6 -5 -6 6 -1 11 2 17 5 13 3 -3 4 -12 1
-19z m-1477 -23 c0 -5 -5 -3 -10 5 -5 8 -10 20 -10 25 0 6 5 3 10 -5 5 -8 10
-19 10 -25z m1570 25 c0 -5 -4 -10 -10 -10 -5 0 -10 5 -10 10 0 6 5 10 10 10
6 0 10 -4 10 -10z m87 -12 c-3 -8 -6 -5 -6 6 -1 11 2 17 5 13 3 -3 4 -12 1
-19z m103 12 c0 -5 -4 -10 -10 -10 -5 0 -10 5 -10 10 0 6 5 10 10 10 6 0 10
-4 10 -10z m150 0 c0 -5 -7 -10 -15 -10 -8 0 -15 5 -15 10 0 6 7 10 15 10 8 0
15 -4 15 -10z m-8400 -34 c0 -3 -4 -8 -10 -11 -5 -3 -10 -1 -10 4 0 6 5 11 10
11 6 0 10 -2 10 -4z m6470 -27 c0 -6 -4 -7 -10 -4 -5 3 -10 11 -10 16 0 6 5 7
10 4 6 -3 10 -11 10 -16z m-7060 -9 c0 -5 -4 -10 -10 -10 -5 0 -10 5 -10 10 0
6 5 10 10 10 6 0 10 -4 10 -10z m340 -6 c0 -8 -5 -12 -10 -9 -6 4 -8 11 -5 16
9 14 15 11 15 -7z m-344 -148 c-10 -25 -21 -36 -35 -36 -33 0 -28 51 7 72 36
22 47 9 28 -36z m6784 44 c12 -7 12 -12 0 -34 -13 -26 -13 -26 -28 -5 -13 19
-11 49 5 49 4 0 15 -4 23 -10z m-4880 -29 c0 -11 -4 -23 -10 -26 -6 -4 -10 5
-10 19 0 14 5 26 10 26 6 0 10 -9 10 -19z m-2066 -6 c3 -8 1 -15 -4 -15 -6 0
-10 7 -10 15 0 8 2 15 4 15 2 0 6 -7 10 -15z m-34 -12 c0 -10 -7 -27 -16 -38
-13 -17 -16 -18 -24 -5 -13 20 -12 34 2 48 18 18 38 15 38 -5z m116 -2 c-3 -5
-15 -7 -26 -4 -28 7 -25 13 6 13 14 0 23 -4 20 -9z m-186 -88 c0 -20 -24 -11
-28 10 -2 12 1 15 12 11 9 -3 16 -13 16 -21z m-59 -80 c-8 -15 -10 -15 -11 -2
0 17 10 32 18 25 2 -3 -1 -13 -7 -23z m1839 -116 c0 -8 17 -11 58 -10 65 3
104 -16 84 -40 -7 -8 -9 -17 -5 -20 3 -4 -1 -7 -10 -7 -9 0 -17 -3 -17 -8 0
-4 26 -7 58 -6 63 1 92 -9 92 -32 0 -9 -7 -14 -17 -12 -13 2 -17 -3 -16 -19 2
-15 -3 -23 -13 -23 -8 0 -14 7 -12 16 2 9 -4 20 -12 24 -8 4 -25 12 -37 19
-18 9 -23 8 -23 -1 0 -10 -2 -10 -9 0 -9 15 -13 15 -50 1 -16 -6 -28 -5 -38 3
-12 9 -19 6 -38 -18 -14 -16 -24 -32 -25 -35 0 -9 -82 -29 -91 -23 -5 3 -6 11
-3 18 3 8 1 17 -4 20 -5 3 -12 -3 -15 -14 -5 -19 -29 -26 -67 -21 -51 7 -241
7 -246 0 -7 -12 -101 -11 -109 1 -4 6 -13 7 -22 2 -8 -5 -37 -5 -64 -1 -28 4
-103 7 -167 5 -64 -1 -123 -1 -129 2 -19 6 -5 22 20 22 13 0 33 7 45 16 15 10
32 13 53 9 18 -4 42 -1 62 8 33 15 225 16 362 3 34 -4 74 -1 93 5 25 8 36 8
41 0 4 -6 21 -12 39 -14 18 -2 35 -7 39 -10 3 -4 11 -7 17 -7 6 0 5 4 -3 9 -9
6 -2 10 23 13 20 2 36 0 36 -6 0 -5 8 -2 18 7 14 13 41 21 85 26 4 1 7 8 7 16
0 11 -8 13 -30 9 -39 -8 -50 16 -21 47 12 13 21 26 21 31 0 4 9 8 20 8 11 0
20 -6 20 -13z m220 -17 c0 -6 -6 -20 -12 -33 -7 -12 -13 -23 -14 -25 -1 -1 -8
0 -17 4 -24 9 -3 45 21 38 14 -5 14 -3 -2 10 -19 16 -19 16 2 16 12 0 22 -5
22 -10z m96 -96 c-3 -9 -6 -20 -6 -26 0 -6 -6 -5 -15 2 -12 10 -13 16 -4 26
16 19 33 18 25 -2z m74 -5 c0 -5 -4 -9 -10 -9 -5 0 -10 7 -10 16 0 8 5 12 10
9 6 -3 10 -10 10 -16z m42 -17 c-9 -24 -32 -46 -40 -38 -3 4 -1 11 7 15 7 5
12 17 11 27 -4 32 -1 37 14 24 8 -6 12 -19 8 -28z m836 15 c3 -12 -5 -19 -27
-23 -17 -4 -28 -10 -25 -15 3 -5 10 -7 15 -4 14 9 11 -5 -5 -21 -18 -18 -30
-18 -45 0 -9 11 -8 15 5 20 8 3 14 12 11 19 -2 6 0 20 4 29 12 22 63 19 67 -5z
m-3262 -17 c21 0 17 -24 -8 -47 -20 -17 -36 -20 -112 -19 -77 1 -89 3 -92 19
-1 9 2 17 6 17 5 0 16 7 25 17 14 13 18 14 25 3 6 -10 12 -11 22 -3 14 12 83
22 106 16 8 -2 20 -3 28 -3z m-776 -26 c0 -29 -28 -42 -72 -34 -23 5 -58 6
-78 3 -26 -4 -32 -3 -25 6 6 6 23 12 38 13 14 1 28 7 30 13 6 15 107 14 107
-1z m184 -18 c-6 -16 -64 -19 -64 -4 0 5 -15 9 -32 8 -59 -3 -79 0 -72 11 4 7
26 8 64 4 38 -4 60 -3 64 4 10 16 47 -6 40 -23z m1371 24 c3 -5 -1 -10 -10
-10 -9 0 -13 5 -10 10 3 6 8 10 10 10 2 0 7 -4 10 -10z m123 1 c11 -7 10 -10
-3 -15 -20 -7 -38 1 -30 15 7 11 16 11 33 0z m76 0 c3 -4 3 -11 0 -14 -8 -8
-34 3 -34 14 0 11 27 12 34 0z m1193 -8 c3 -9 -9 -13 -42 -13 -38 0 -45 3 -37
13 14 16 74 16 79 0z m1471 -1 c3 -11 -8 -14 -67 -15 -14 -1 -27 5 -29 12 -3
10 2 12 17 8 11 -3 23 -2 26 2 7 12 48 6 53 -7z m-4918 0 c0 -18 -25 -30 -52
-25 -26 5 -34 13 -23 24 9 9 75 9 75 1z m290 -1 c0 -5 -11 -8 -25 -7 -33 1
-33 16 0 16 14 0 25 -4 25 -9z m3035 -1 c3 -5 -1 -10 -10 -10 -9 0 -13 5 -10
10 3 6 8 10 10 10 2 0 7 -4 10 -10z m1465 -6 c0 -8 -4 -12 -10 -9 -5 3 -10 10
-10 16 0 5 5 9 10 9 6 0 10 -7 10 -16z m-3332 -6 c-5 -13 -63 -29 -73 -20 -17
18 -2 32 36 32 28 0 39 -4 37 -12z m8222 -8 c13 -8 13 -10 0 -14 -25 -8 -63
-2 -68 12 -4 14 45 17 68 2z m87 -6 c-3 -3 -12 -4 -19 -1 -8 3 -5 6 6 6 11 1
17 -2 13 -5z"/>
<path d="M8131 2444 c0 -11 3 -14 6 -6 3 7 2 16 -1 19 -3 4 -6 -2 -5 -13z"/>
<path d="M4200 2240 c0 -5 5 -10 11 -10 5 0 7 5 4 10 -3 6 -8 10 -11 10 -2 0
-4 -4 -4 -10z"/>
<path d="M9838 1835 c2 -14 6 -25 8 -25 2 0 4 11 4 25 0 14 -4 25 -9 25 -4 0
-6 -11 -3 -25z"/>
<path d="M9892 1849 c2 -7 10 -15 17 -17 8 -3 12 1 9 9 -2 7 -10 15 -17 17 -8
3 -12 -1 -9 -9z"/>
<path d="M9770 1816 c0 -9 5 -16 10 -16 6 0 10 4 10 9 0 6 -4 13 -10 16 -5 3
-10 -1 -10 -9z"/>
<path d="M5147 1713 c-4 -3 -7 -13 -7 -22 1 -13 3 -13 11 2 11 19 8 33 -4 20z"/>
</g>
</svg>
